<?xml version="1.0" standalone="no"?>
<!DOCTYPE svg PUBLIC "-//W3C//DTD SVG 20010904//EN"
 "http://www.w3.org/TR/2001/REC-SVG-20010904/DTD/svg10.dtd">
<svg version="1.0" xmlns="http://www.w3.org/2000/svg"
 width="1080.000000pt" height="1080.000000pt" viewBox="0 0 1080.000000 1080.000000"
 preserveAspectRatio="xMidYMid meet">

<g transform="translate(0.000000,1080.000000) scale(0.100000,-0.100000)"
fill="#000000" stroke="none">
<path d="M5145 10463 c-286 -15 -593 -58 -880 -124 -818 -188 -1585 -582
-2224 -1142 -252 -221 -546 -547 -748 -828 -783 -1091 -1106 -2429 -904 -3746
126 -817 451 -1592 949 -2259 826 -1107 2061 -1826 3432 -1998 702 -89 1353
-37 2044 160 501 143 952 353 1403 653 469 311 897 717 1240 1173 968 1286
1266 2947 807 4487 -339 1134 -1054 2110 -2022 2760 -585 393 -1202 647 -1892
780 -381 73 -827 104 -1205 84z m576 -223 c445 -34 811 -107 1211 -240 1576
-528 2772 -1816 3173 -3420 108 -433 148 -746 149 -1175 1 -457 -41 -792 -154
-1230 -337 -1304 -1247 -2451 -2440 -3073 -886 -462 -1862 -643 -2840 -527
-836 100 -1630 419 -2325 935 -259 192 -608 521 -806 760 -588 709 -932 1466
-1083 2385 -48 288 -60 437 -60 740 0 428 42 767 145 1180 339 1356 1268 2517
2524 3154 585 297 1253 476 1925 514 136 8 458 6 581 -3z"/>
<path d="M5090 10049 c-887 -60 -1766 -386 -2475 -917 -871 -654 -1485 -1580
-1745 -2634 -88 -358 -120 -610 -127 -1004 -8 -406 10 -610 88 -1004 239
-1212 952 -2280 1979 -2965 285 -190 510 -311 798 -431 778 -324 1581 -427
2447 -313 368 48 848 184 1205 341 944 416 1708 1110 2214 2011 416 740 626
1621 586 2457 -12 253 -23 354 -65 587 -153 844 -470 1536 -1005 2193 -118
144 -379 411 -530 542 -936 811 -2147 1219 -3370 1137z m790 -124 c544 -59
1069 -214 1551 -456 660 -332 1198 -785 1640 -1381 537 -724 846 -1621 884
-2563 12 -288 -22 -695 -86 -1010 -246 -1231 -995 -2315 -2058 -2980 -757
-474 -1665 -720 -2541 -691 -1124 38 -2142 457 -2971 1222 -607 561 -1062
1308 -1283 2110 -69 249 -135 612 -157 854 -14 169 -14 564 0 735 80 911 419
1764 982 2465 667 831 1559 1387 2587 1614 221 49 383 71 712 100 103 9 604
-4 740 -19z"/>
<path d="M5320 9471 c0 -14 6 -21 19 -21 10 0 22 -7 25 -16 3 -9 6 -98 6 -199
l0 -183 -27 -20 c-16 -11 -26 -23 -23 -25 3 -3 42 -7 88 -9 72 -3 82 -1 82 14
0 11 -10 18 -27 20 l-28 3 0 90 0 90 95 1 c87 0 95 2 98 21 3 18 -4 20 -88 26
-51 4 -96 9 -101 13 -10 6 -12 123 -3 148 5 13 22 16 83 16 79 0 121 -16 121
-46 0 -19 36 -18 44 2 9 22 7 72 -2 78 -4 2 -87 8 -185 12 -177 7 -177 7 -177
-15z"/>
<path d="M4953 9463 c-28 -5 -30 -29 -3 -38 27 -8 25 -26 -13 -115 -42 -97
-58 -100 -112 -23 -60 86 -62 90 -35 118 31 33 13 39 -71 26 -35 -6 -67 -11
-71 -11 -19 0 -6 -31 17 -40 23 -9 119 -121 172 -201 13 -19 28 -64 34 -98 10
-55 9 -64 -6 -81 -10 -11 -25 -20 -32 -20 -8 0 -13 -6 -10 -12 2 -7 8 -13 13
-13 5 1 44 5 87 9 64 7 77 11 75 25 -2 8 -12 17 -23 19 -31 6 -35 14 -45 82
-8 59 -7 67 31 162 51 128 76 178 94 185 8 3 15 11 15 19 0 14 -62 18 -117 7z"/>
<path d="M5765 9461 c-8 -14 2 -31 20 -31 22 0 23 -21 9 -156 -25 -235 -17
-270 64 -307 59 -26 154 -28 198 -5 49 26 62 57 93 215 17 82 33 156 36 165 4
9 21 21 38 27 43 16 25 28 -61 45 -77 15 -105 5 -64 -22 13 -9 22 -25 22 -41
0 -52 -50 -284 -68 -315 -32 -55 -138 -61 -188 -11 -29 29 -31 67 -9 245 16
128 24 150 56 150 29 0 22 28 -8 34 -75 14 -131 17 -138 7z"/>
<path d="M4473 9382 c-63 -15 -87 -42 -39 -42 13 0 28 -6 34 -12 13 -18 73
-278 66 -289 -10 -17 -30 -9 -65 27 -18 20 -87 83 -151 140 l-117 103 -53 -18
c-60 -20 -76 -48 -32 -53 27 -3 31 -11 86 -178 62 -189 66 -208 43 -216 -18
-7 -20 -34 -2 -34 22 0 128 36 128 43 -1 4 -1 11 -1 16 0 5 -12 11 -27 13 -25
3 -29 11 -69 143 -36 117 -41 142 -30 153 11 12 26 3 92 -56 44 -39 113 -104
154 -146 41 -42 78 -76 82 -76 4 0 18 4 31 9 l24 9 -43 194 c-24 106 -44 202
-44 214 0 11 9 29 20 39 22 20 18 36 -8 34 -9 -1 -45 -8 -79 -17z"/>
<path d="M6330 9359 c0 -7 8 -18 17 -25 17 -11 15 -23 -26 -191 -49 -201 -54
-213 -81 -213 -37 0 -21 -29 23 -40 23 -6 88 -25 143 -41 56 -16 106 -29 111
-29 11 0 44 100 37 112 -10 17 -35 7 -44 -17 -14 -36 -29 -39 -101 -18 -52 15
-65 23 -67 42 -5 30 78 340 96 357 7 8 22 14 33 14 42 0 16 27 -41 43 -70 20
-100 21 -100 6z"/>
<path d="M6763 9234 c-3 -8 3 -21 13 -29 18 -13 18 -16 -10 -97 -16 -46 -46
-129 -68 -185 -35 -90 -42 -103 -70 -112 -17 -6 -28 -14 -25 -18 15 -15 292
-122 298 -115 4 4 16 28 27 54 17 40 18 47 5 52 -24 10 -29 7 -41 -19 -7 -14
-20 -25 -31 -25 -23 0 -127 45 -135 59 -9 15 120 343 141 359 10 7 23 10 30 8
15 -6 28 13 17 24 -5 5 -40 20 -77 34 -58 22 -69 23 -74 10z"/>
<path d="M3723 9130 c-43 -20 -61 -33 -57 -43 3 -9 14 -12 28 -10 13 3 26 1
29 -4 3 -4 15 -99 27 -211 17 -151 20 -206 11 -215 -16 -16 -14 -37 4 -37 27
0 117 50 112 63 -2 6 -14 14 -28 17 -18 4 -26 16 -34 44 -11 46 -6 51 103 97
l75 31 31 -31 c26 -27 29 -34 18 -49 -40 -55 -27 -61 58 -28 70 28 93 56 46
56 -15 0 -33 11 -46 28 -69 88 -287 322 -300 321 -8 0 -43 -13 -77 -29z m166
-128 c40 -46 71 -91 69 -99 -4 -23 -137 -78 -151 -64 -12 12 -37 218 -29 239
10 27 42 5 111 -76z"/>
<path d="M3443 8978 c-52 -11 -248 -128 -248 -148 0 -10 8 -14 26 -12 24 3 35
-11 128 -158 98 -157 111 -186 91 -206 -5 -5 -6 -14 -2 -21 9 -15 147 67 147
88 0 8 -7 12 -15 10 -62 -17 -65 -15 -96 44 -29 56 -29 57 -9 71 126 90 155
124 155 182 0 20 -9 55 -20 78 -33 66 -78 87 -157 72z m77 -76 c35 -36 47 -90
28 -129 -15 -32 -104 -95 -127 -91 -8 2 -37 40 -64 86 -56 93 -56 97 22 137
64 33 105 32 141 -3z"/>
<path d="M7335 8979 c-4 -6 -2 -16 4 -22 6 -6 11 -18 11 -27 0 -16 -161 -314
-181 -334 -4 -5 -18 -10 -31 -11 -41 -3 -30 -23 33 -60 47 -27 64 -33 70 -23
5 7 2 20 -7 30 -9 9 -13 25 -10 35 15 44 143 248 156 248 21 0 29 -103 22
-285 l-5 -146 26 -17 25 -16 124 177 c118 168 125 177 155 176 55 -3 46 21
-28 70 -56 38 -71 44 -75 31 -4 -9 2 -25 11 -35 18 -19 16 -23 -55 -127 -96
-141 -100 -146 -116 -132 -10 8 -14 61 -16 218 l-3 206 -52 28 c-35 19 -54 24
-58 16z"/>
<path d="M3032 8734 c-29 -20 -52 -40 -52 -44 0 -4 23 -85 50 -180 55 -190 55
-210 -3 -176 -98 58 -284 156 -295 156 -15 0 -102 -78 -102 -92 0 -6 14 -8 35
-4 l34 7 121 -152 c101 -126 120 -156 115 -176 -11 -44 6 -43 60 4 30 25 52
50 49 55 -3 4 -19 7 -36 5 -28 -2 -38 7 -120 112 -127 162 -114 172 85 61 69
-38 130 -70 135 -70 5 0 15 6 21 14 9 11 4 40 -24 133 -45 149 -54 203 -32
203 9 0 53 -46 99 -102 104 -128 101 -123 88 -149 -22 -41 5 -42 63 -2 60 41
67 58 22 58 -24 0 -43 19 -132 130 -124 157 -137 178 -123 204 27 51 10 52
-58 5z"/>
<path d="M7900 8596 c0 -8 5 -18 10 -21 20 -12 9 -34 -27 -56 -21 -12 -99 -62
-174 -111 -84 -55 -146 -88 -162 -88 -39 0 -33 -13 25 -59 53 -43 81 -43 59
-2 -10 18 -8 25 15 46 15 14 36 25 46 25 20 0 136 -90 152 -117 5 -10 3 -28
-8 -50 -14 -30 -20 -34 -48 -31 -48 5 -43 -14 17 -66 59 -50 78 -52 69 -7 -4
20 5 52 29 107 52 120 127 321 127 341 -1 18 -98 103 -119 103 -6 0 -11 -6
-11 -14z m70 -111 c0 -19 -67 -188 -85 -211 -11 -16 -16 -17 -36 -6 -41 22
-110 92 -103 103 12 19 187 129 206 129 10 0 18 -7 18 -15z"/>
<path d="M5205 8540 c-1078 -72 -2030 -677 -2563 -1627 -168 -300 -295 -663
-351 -1008 -77 -475 -45 -945 99 -1422 326 -1084 1231 -1921 2335 -2162 257
-56 360 -66 685 -66 258 0 313 3 440 23 718 113 1324 425 1815 933 463 479
750 1066 858 1749 18 114 21 180 22 430 0 308 -5 365 -51 600 -100 509 -323
986 -650 1393 -380 474 -941 850 -1539 1031 -333 101 -753 150 -1100 126z
m570 -125 c702 -92 1329 -407 1815 -911 475 -493 772 -1134 841 -1818 17 -174
7 -575 -20 -738 -83 -515 -270 -963 -569 -1363 -519 -694 -1268 -1119 -2142
-1216 -142 -15 -494 -12 -645 6 -576 69 -1104 290 -1555 652 -150 120 -398
371 -501 508 -338 448 -524 890 -610 1455 -30 194 -33 598 -6 790 99 695 393
1288 882 1775 514 512 1184 817 1923 875 147 12 442 4 587 -15z"/>
<path d="M5365 8112 l-30 -87 -93 -5 -93 -5 71 -53 c38 -29 70 -58 70 -65 0
-6 -11 -48 -25 -92 -14 -44 -25 -81 -25 -83 0 -2 36 22 79 53 l80 56 71 -51
c40 -28 74 -49 77 -47 2 3 -6 38 -18 79 -12 40 -22 78 -23 85 0 6 32 37 73 67
l75 56 -92 0 c-104 0 -101 -3 -137 110 -10 30 -20 58 -24 62 -4 4 -20 -32 -36
-80z"/>
<path d="M4665 7912 l-30 -87 -93 -5 -93 -5 71 -53 c38 -29 70 -58 70 -65 0
-6 -11 -48 -25 -92 -14 -44 -25 -81 -25 -83 0 -2 36 22 79 53 l80 56 71 -51
c40 -28 74 -49 77 -47 2 3 -6 38 -18 79 -12 40 -22 78 -23 85 0 6 32 37 73 67
l75 56 -92 0 c-104 0 -101 -3 -137 110 -10 30 -20 58 -24 62 -4 4 -20 -32 -36
-80z"/>
<path d="M6075 7912 l-30 -87 -93 -5 -93 -5 71 -53 c38 -29 70 -58 70 -65 0
-6 -11 -48 -25 -92 -14 -44 -25 -81 -25 -83 0 -2 36 22 79 53 l80 56 71 -51
c40 -28 74 -49 77 -47 2 3 -6 38 -18 79 -12 40 -22 78 -23 85 0 6 32 37 73 67
l75 56 -92 0 c-104 0 -101 -3 -137 110 -10 30 -20 58 -24 62 -4 4 -20 -32 -36
-80z"/>
<path d="M4366 6170 c-63 -25 -118 -79 -148 -144 -23 -51 -23 -55 -26 -505 -3
-431 -2 -458 17 -520 26 -83 66 -132 139 -168 50 -25 68 -28 152 -28 77 0 104
5 145 23 129 59 175 167 175 415 l0 77 -105 0 -105 0 0 -125 c0 -149 -10 -179
-66 -194 -48 -13 -87 -4 -116 26 l-23 25 -3 421 c-2 287 0 434 8 459 20 71
117 93 171 39 29 -29 29 -31 29 -140 l0 -111 106 0 107 0 -7 114 c-11 189 -46
266 -147 321 -48 26 -65 30 -154 32 -81 3 -109 -1 -149 -17z"/>
<path d="M2720 5824 c0 -227 -3 -343 -10 -339 -6 4 -9 -12 -9 -42 2 -47 2 -47
9 -13 4 19 8 -110 9 -287 l1 -323 105 0 105 0 0 290 0 290 63 0 c80 0 121 -23
136 -77 6 -21 11 -128 12 -238 1 -110 4 -213 8 -230 l6 -30 109 -3 109 -3 -8
23 c-4 13 -10 134 -14 269 l-6 246 -32 63 c-29 56 -31 62 -13 57 11 -3 17 -1
14 4 -3 5 -17 8 -32 7 -15 -1 -38 4 -51 11 l-24 13 35 20 c81 46 113 145 106
328 -3 102 -7 124 -32 173 -57 118 -113 137 -393 137 l-203 0 0 -346z m363
145 c40 -18 51 -48 55 -154 6 -169 -25 -217 -140 -219 l-63 -1 -3 193 -2 192
64 0 c36 0 76 -5 89 -11z"/>
<path d="M3500 5495 l0 -675 290 0 290 0 0 95 0 95 -185 0 -185 0 0 210 0 210
145 0 145 0 0 95 0 95 -145 0 -145 0 0 180 0 180 185 0 185 0 0 95 0 95 -290
0 -290 0 0 -675z"/>
<path d="M4940 5495 l0 -675 290 0 290 0 0 95 0 95 -180 0 -180 0 0 210 0 210
145 0 145 0 0 95 0 95 -145 0 -145 0 0 180 0 180 180 0 180 0 0 95 0 95 -290
0 -290 0 0 -675z"/>
<path d="M5650 5495 l0 -675 105 0 105 0 0 675 0 675 -105 0 -105 0 0 -675z"/>
<path d="M5967 6138 c2 -18 48 -321 102 -673 l97 -640 142 -3 c78 -1 142 1
142 5 0 5 45 304 100 666 55 362 100 663 100 668 0 5 -43 9 -95 9 -90 0 -95
-1 -100 -22 -2 -13 -32 -234 -66 -493 -33 -258 -64 -483 -68 -499 -5 -20 -29
140 -76 492 l-69 522 -107 0 -108 0 6 -32z"/>
<path d="M6760 5495 l0 -675 290 0 290 0 0 95 0 95 -185 0 -185 0 0 210 0 210
145 0 145 0 0 95 0 95 -145 0 -145 0 0 180 0 180 185 0 185 0 0 95 0 95 -290
0 -290 0 0 -675z"/>
<path d="M7460 5495 l0 -677 213 4 c195 3 216 5 263 26 63 29 106 72 136 137
23 49 23 55 26 489 3 416 2 443 -17 505 -23 76 -64 126 -131 162 -43 23 -55
24 -267 27 l-223 3 0 -676z m379 470 c16 -8 34 -28 40 -46 7 -21 11 -162 11
-421 0 -488 3 -478 -141 -486 l-79 -5 0 487 0 486 70 0 c43 0 82 -6 99 -15z"/>
<path d="M3334 5476 c-3 -8 -4 -27 -2 -43 3 -29 31 -44 50 -25 6 6 0 8 -16 5
-24 -5 -26 -3 -26 32 0 34 2 37 25 33 13 -3 22 -1 19 3 -8 14 -44 10 -50 -5z"/>
<path d="M3404 5477 c-3 -9 -4 -28 -2 -44 2 -22 8 -28 28 -28 23 0 25 4 25 40
0 34 -3 40 -23 43 -13 2 -24 -3 -28 -11z m46 -32 c0 -28 -4 -35 -20 -35 -16 0
-20 7 -20 35 0 28 4 35 20 35 16 0 20 -7 20 -35z"/>
<path d="M4050 3685 l0 -205 60 0 c70 0 104 13 119 47 6 14 11 81 11 158 0 77
-5 144 -11 158 -15 34 -49 47 -119 47 l-60 0 0 -205z m118 133 c8 -8 12 -52
12 -133 0 -128 -5 -145 -47 -145 -23 0 -23 0 -23 145 0 145 0 145 23 145 13 0
28 -5 35 -12z"/>
<path d="M4302 3693 c-18 -109 -32 -201 -32 -205 0 -5 14 -8 30 -8 25 0 30 4
30 24 0 43 10 56 45 56 35 0 45 -13 45 -56 0 -21 5 -24 35 -24 32 0 35 2 30
23 -3 12 -16 92 -30 177 -38 232 -30 210 -79 210 l-42 0 -32 -197z m97 -50 c1
-18 -5 -23 -24 -23 -29 0 -29 -1 -13 110 l12 85 13 -75 c6 -41 12 -85 12 -97z"/>
<path d="M4480 3860 c0 -28 3 -30 35 -30 l35 0 0 -175 0 -175 30 0 30 0 0 174
0 175 33 3 c27 2 33 8 35 31 l3 27 -100 0 -101 0 0 -30z"/>
<path d="M4710 3685 l0 -205 85 0 85 0 0 30 c0 30 -1 30 -55 30 l-56 0 3 63 3
62 43 3 c37 3 42 6 42 28 0 22 -4 24 -45 24 l-45 0 0 55 0 55 55 0 c54 0 55 0
55 30 l0 30 -85 0 -85 0 0 -205z"/>
<path d="M5821 3868 c-16 -42 -143 -363 -148 -376 -4 -10 2 -13 23 -10 27 3
32 12 106 198 43 107 78 198 78 203 0 4 -11 7 -25 7 -17 0 -28 -7 -34 -22z"/>
<path d="M6637 3692 c-43 -108 -78 -200 -77 -204 0 -5 11 -8 24 -8 22 0 30 14
84 153 33 83 69 176 81 205 l21 52 -28 0 c-26 0 -30 -8 -105 -198z"/>
<path d="M4920 3730 c0 -27 3 -30 30 -30 27 0 30 3 30 30 0 27 -3 30 -30 30
-27 0 -30 -3 -30 -30z"/>
<path d="M4920 3510 c0 -27 3 -30 30 -30 27 0 30 3 30 30 0 27 -3 30 -30 30
-27 0 -30 -3 -30 -30z"/>
<path d="M8253 8299 c-8 -8 -9 -16 -1 -29 7 -10 7 -23 2 -32 -5 -8 -71 -70
-147 -137 -126 -111 -142 -122 -168 -116 -43 10 -37 -13 15 -64 47 -46 69 -47
60 -3 -5 25 4 37 100 120 160 139 170 127 69 -81 -91 -186 -90 -186 114 -115
109 38 155 50 163 42 17 -17 4 -34 -103 -127 -94 -82 -104 -88 -134 -82 -43 8
-42 -5 5 -66 41 -54 67 -64 59 -24 -2 16 2 33 12 45 27 31 273 240 283 240 5
0 19 -5 30 -11 41 -22 40 7 -2 60 -48 60 -29 61 -236 -10 -153 -53 -174 -57
-174 -34 0 8 36 87 80 176 l81 160 -48 50 c-37 38 -51 47 -60 38z"/>
<path d="M2493 8240 c-63 -15 -123 -67 -154 -135 -52 -113 15 -244 166 -323
99 -51 205 -25 265 66 35 53 44 90 36 147 -14 88 -127 213 -219 240 -28 8 -53
15 -56 14 -3 -1 -21 -4 -38 -9z m101 -77 c78 -40 166 -156 166 -220 0 -63 -73
-133 -138 -133 -82 0 -220 108 -242 189 -15 58 -5 96 40 141 52 52 103 59 174
23z"/>
<path d="M2109 7830 c-62 -62 -88 -118 -89 -188 0 -92 60 -171 169 -223 60
-29 157 -37 198 -16 45 24 101 86 130 146 l27 54 -40 33 c-43 37 -59 42 -68
18 -4 -9 4 -24 21 -38 33 -28 28 -55 -22 -113 -59 -70 -122 -76 -227 -22 -132
67 -173 173 -107 272 35 53 67 67 103 44 24 -16 46 -7 46 18 0 10 -72 65 -85
65 -3 0 -28 -23 -56 -50z"/>
<path d="M8704 7756 c-3 -8 -3 -19 0 -24 10 -16 -16 -38 -164 -141 -136 -95
-147 -101 -182 -95 -21 3 -38 3 -38 0 0 -3 36 -60 80 -126 43 -67 81 -127 83
-134 7 -18 99 34 95 53 -3 12 -13 15 -40 13 -35 -3 -39 0 -73 51 -20 31 -35
63 -33 73 4 22 104 94 130 94 11 0 33 -24 59 -65 39 -62 60 -78 74 -55 4 6
-12 40 -34 76 -23 36 -41 72 -41 79 0 17 97 85 122 85 17 0 88 -106 88 -133 0
-8 -7 -20 -15 -27 -12 -10 -13 -16 -4 -26 15 -19 26 -18 65 7 l33 20 -41 67
c-59 97 -136 210 -148 217 -6 3 -13 -1 -16 -9z"/>
<path d="M1576 6098 c-22 -59 -106 -302 -106 -305 0 -2 -80 -3 -178 -3 -98 0
-181 -3 -185 -6 -3 -4 56 -53 131 -111 75 -57 141 -108 145 -112 5 -5 -15 -86
-43 -181 -28 -94 -50 -173 -48 -175 2 -2 70 43 152 100 l150 103 110 -76 c61
-42 129 -89 150 -104 22 -16 41 -27 43 -25 2 2 -19 78 -47 168 -27 90 -50 169
-50 176 0 7 63 60 140 119 78 59 137 111 133 115 -5 5 -87 10 -182 11 l-174 3
-59 170 c-33 93 -61 171 -62 173 -2 2 -11 -16 -20 -40z"/>
<path d="M9246 6098 c-22 -59 -106 -302 -106 -305 0 -2 -80 -3 -178 -3 -98 0
-181 -3 -185 -6 -3 -4 56 -53 131 -111 75 -57 141 -108 145 -112 5 -5 -15 -86
-43 -181 -28 -94 -50 -173 -48 -175 2 -2 70 43 152 100 l150 103 110 -76 c61
-42 129 -89 150 -104 22 -16 41 -27 43 -25 2 2 -19 78 -47 168 -27 90 -50 169
-50 176 0 7 63 60 140 119 78 59 137 111 133 115 -5 5 -87 10 -182 11 l-174 3
-59 170 c-33 93 -61 171 -62 173 -2 2 -11 -16 -20 -40z"/>
<path d="M8209 3413 c-23 -37 -71 -108 -106 -156 -36 -49 -62 -95 -59 -103 6
-16 32 -19 41 -4 3 6 13 10 20 10 8 0 105 -68 216 -151 l201 -152 -5 -42 c-5
-33 -3 -44 8 -49 17 -6 75 68 192 245 104 155 100 144 56 172 -77 48 -80 49
-97 25 -14 -20 -14 -24 3 -43 39 -43 36 -57 -42 -167 -28 -41 -46 -58 -62 -58
-28 0 -175 106 -175 127 0 8 25 53 55 98 30 46 55 89 55 94 0 10 -39 36 -44
29 -2 -2 -26 -37 -53 -78 -67 -100 -74 -105 -111 -86 -45 23 -132 95 -132 109
0 7 21 43 46 81 46 68 46 68 85 63 32 -4 41 -2 50 15 12 23 10 26 -52 62 l-47
27 -43 -68z"/>
<path d="M2583 3363 c-8 -3 -11 -14 -7 -29 4 -14 1 -31 -7 -40 -13 -15 -355
-251 -396 -273 -18 -9 -29 -9 -52 4 -73 37 -68 6 21 -119 161 -225 249 -281
358 -226 63 32 85 73 85 155 l0 70 61 1 c46 0 69 6 93 23 59 43 78 119 45 184
-20 38 -173 251 -182 254 -4 1 -13 -1 -19 -4z m90 -175 c59 -73 69 -110 46
-160 -13 -31 -69 -68 -100 -68 -37 0 -84 30 -123 80 -42 53 -43 62 -13 90 28
27 136 100 147 100 5 0 24 -19 43 -42z m-219 -171 c50 -61 77 -127 70 -167 -4
-17 -21 -47 -38 -65 -41 -43 -90 -53 -141 -29 -43 20 -134 129 -135 161 0 15
23 38 83 81 45 33 92 61 104 61 14 1 34 -14 57 -42z"/>
<path d="M2901 2956 c-7 -9 -10 -23 -7 -32 3 -9 -23 -102 -59 -207 -64 -189
-66 -193 -119 -244 -58 -56 -85 -65 -124 -37 -23 16 -42 12 -42 -11 0 -15 163
-168 184 -173 22 -5 26 25 5 44 -31 28 -23 55 35 120 39 44 68 66 103 79 26 9
106 40 176 67 71 28 145 51 165 52 53 2 50 23 -10 74 -58 50 -84 52 -80 6 2
-17 -3 -36 -11 -42 -18 -16 -195 -82 -217 -82 -32 0 -32 34 1 126 37 106 53
127 91 122 17 -3 33 1 40 9 9 12 -1 27 -53 79 -57 57 -67 63 -78 50z"/>
<path d="M7882 2958 c-48 -16 -127 -91 -152 -144 -30 -61 -26 -177 9 -247 34
-69 101 -148 163 -190 117 -81 232 -72 336 27 102 96 130 215 76 323 -33 67
-135 162 -217 203 -72 35 -160 47 -215 28z m164 -92 c68 -31 176 -134 204
-193 77 -164 -95 -331 -258 -251 -59 28 -150 120 -185 185 -40 74 -44 136 -15
193 47 91 146 116 254 66z"/>
<path d="M7370 2501 c-25 -10 -98 -52 -162 -94 -89 -58 -116 -80 -111 -93 4
-10 14 -14 29 -11 13 2 30 -1 38 -7 27 -21 256 -410 256 -435 0 -13 -7 -32
-16 -42 -17 -19 -12 -39 10 -39 22 0 248 148 293 193 127 123 112 294 -38 448
-89 92 -197 121 -299 80z m155 -70 c51 -23 136 -115 170 -186 23 -46 27 -65
23 -114 -5 -72 -31 -113 -105 -167 -71 -51 -88 -57 -111 -36 -27 24 -262 396
-262 414 0 18 45 55 105 86 50 26 126 28 180 3z"/>
<path d="M3175 2420 c-24 -27 -13 -68 22 -76 33 -9 57 6 61 38 6 50 -49 76
-83 38z"/>
<path d="M3766 2283 c-12 -13 -5 -39 14 -51 11 -7 20 -20 20 -30 -1 -31 -204
-404 -232 -425 -35 -26 -87 -16 -133 25 -39 34 -44 64 -18 105 16 24 16 26 -2
39 -10 8 -24 14 -30 14 -18 0 -77 -108 -70 -130 16 -49 168 -140 236 -140 72
0 95 28 204 242 104 203 128 240 154 236 19 -3 41 9 41 22 0 13 -176 101 -184
93z"/>
<path d="M2939 2121 c-20 -16 -22 -23 -14 -47 15 -41 59 -55 87 -27 26 27 19
65 -17 81 -32 15 -29 15 -56 -7z"/>
<path d="M6538 2073 c-76 -28 -92 -56 -38 -66 39 -8 39 -21 -9 -148 -62 -166
-69 -179 -92 -179 -24 0 -38 30 -70 157 l-23 92 23 25 c13 14 21 31 18 39 -4
12 -19 11 -89 -8 -69 -18 -84 -25 -86 -43 -3 -18 2 -22 22 -22 14 0 30 -8 35
-18 13 -24 121 -453 121 -479 0 -12 -12 -30 -27 -41 -16 -12 -24 -25 -20 -35
5 -13 17 -12 104 10 54 13 102 29 108 34 13 13 -10 33 -38 34 -26 0 -57 54
-57 100 0 17 13 58 30 93 22 46 34 62 50 62 20 0 177 -131 187 -157 3 -8 -5
-25 -17 -38 -12 -13 -19 -29 -15 -35 10 -15 41 -9 143 30 62 24 82 36 80 49
-2 10 -15 17 -38 19 -24 2 -60 22 -110 59 -116 87 -200 163 -200 182 0 29 79
253 96 272 17 18 12 39 -9 38 -7 0 -42 -12 -79 -26z"/>
<path d="M4140 2076 c-94 -25 -163 -87 -215 -193 -97 -199 -63 -343 99 -423
196 -97 361 -6 422 231 20 78 15 209 -9 255 -54 104 -185 161 -297 130z m152
-72 c87 -44 112 -166 64 -317 -46 -148 -122 -217 -224 -203 -127 17 -195 113
-171 242 20 111 97 241 163 276 52 28 114 29 168 2z"/>
<path d="M4634 1938 c-4 -7 2 -18 14 -26 13 -9 22 -25 22 -41 0 -44 -91 -455
-106 -478 -9 -14 -24 -23 -40 -23 -23 0 -43 -24 -30 -37 8 -8 164 -42 194 -43
31 0 29 34 -3 48 -31 14 -31 35 -6 151 19 88 31 104 71 96 14 -3 75 -12 135
-20 163 -23 149 -10 142 -126 -7 -113 -15 -133 -57 -147 -52 -19 -38 -39 33
-46 34 -4 83 -9 110 -12 43 -5 47 -4 47 15 0 14 -9 25 -25 31 -23 9 -25 15
-25 67 0 79 28 437 36 458 4 9 17 21 30 26 14 5 24 17 24 29 0 17 -6 20 -44
20 -24 0 -64 3 -90 6 -42 6 -46 5 -46 -14 0 -12 10 -26 21 -33 21 -11 21 -16
15 -108 -4 -61 -12 -101 -21 -110 -12 -12 -34 -11 -155 6 -78 11 -146 25 -153
32 -8 8 -8 31 2 88 16 97 30 127 59 131 23 3 40 27 29 39 -8 7 -125 32 -154
33 -12 0 -25 -5 -29 -12z"/>
<path d="M5753 1891 c-28 -4 -55 -10 -59 -13 -12 -12 5 -38 24 -38 11 0 24 -6
30 -13 12 -13 52 -364 45 -384 -8 -22 -33 -22 -54 0 -33 34 -164 221 -232 330
l-60 97 -69 0 c-59 0 -68 -2 -68 -18 0 -11 11 -24 25 -30 l25 -12 0 -245 c0
-155 -4 -254 -11 -266 -5 -11 -21 -24 -35 -29 -72 -28 21 -57 137 -44 49 5 59
10 59 25 0 13 -7 19 -23 19 -44 0 -47 13 -47 221 0 109 4 200 9 203 19 12 38
-8 108 -112 40 -59 112 -158 160 -219 82 -106 89 -113 123 -113 66 0 65 -10
25 293 -37 283 -37 307 0 321 8 3 15 12 15 21 0 16 -30 18 -127 6z"/>
<path d="M6987 1642 c-34 -37 -15 -82 33 -82 67 0 80 92 14 98 -20 2 -36 -4
-47 -16z"/>
</g>
</svg>
